<mxfile host="65bd71144e">
    <diagram id="_N1_-AtDWNs15I2wm06U" name="Page-1">
        <mxGraphModel dx="3650" dy="1393" grid="1" gridSize="10" guides="1" tooltips="1" connect="1" arrows="1" fold="1" page="1" pageScale="1" pageWidth="850" pageHeight="1100" math="0" shadow="0">
            <root>
                <mxCell id="0"/>
                <mxCell id="1" parent="0"/>
                <mxCell id="2" value="MessageBus Process Flow" style="text;html=1;strokeColor=none;fillColor=none;align=center;verticalAlign=middle;whiteSpace=wrap;rounded=0;fontSize=40;" vertex="1" parent="1">
                    <mxGeometry x="160" width="530" height="150" as="geometry"/>
                </mxCell>
                <mxCell id="9" value="Push&lt;br style=&quot;font-size: 11px;&quot;&gt;Request" style="edgeStyle=none;html=1;entryX=0;entryY=0.5;entryDx=0;entryDy=0;fontSize=11;strokeWidth=3;dashed=1;fillColor=#1ba1e2;strokeColor=#FF66FF;" edge="1" parent="1" source="3" target="8">
                    <mxGeometry x="-0.4605" y="5" relative="1" as="geometry">
                        <Array as="points">
                            <mxPoint x="220" y="445"/>
                            <mxPoint x="220" y="360"/>
                        </Array>
                        <mxPoint as="offset"/>
                    </mxGeometry>
                </mxCell>
                <mxCell id="7" value="D" style="swimlane;startSize=0;fontSize=16;" vertex="1" parent="1">
                    <mxGeometry x="250" y="290" width="560" height="630" as="geometry"/>
                </mxCell>
                <mxCell id="11" style="edgeStyle=none;html=1;entryX=0.5;entryY=0;entryDx=0;entryDy=0;strokeWidth=3;fontSize=16;exitX=1;exitY=0.5;exitDx=0;exitDy=0;strokeColor=#FF66FF;" edge="1" parent="7" source="8" target="13">
                    <mxGeometry relative="1" as="geometry">
                        <Array as="points">
                            <mxPoint x="170" y="70"/>
                        </Array>
                    </mxGeometry>
                </mxCell>
                <mxCell id="50" style="edgeStyle=none;html=1;entryX=0.5;entryY=0;entryDx=0;entryDy=0;strokeColor=#FF66FF;strokeWidth=3;fontSize=16;fontColor=#FFFFFF;" edge="1" parent="7" source="8" target="49">
                    <mxGeometry relative="1" as="geometry">
                        <Array as="points">
                            <mxPoint x="400" y="70"/>
                        </Array>
                    </mxGeometry>
                </mxCell>
                <mxCell id="8" value="Push&lt;br&gt;Socket" style="ellipse;whiteSpace=wrap;html=1;aspect=fixed;fontSize=16;" vertex="1" parent="7">
                    <mxGeometry x="40" y="30" width="80" height="80" as="geometry"/>
                </mxCell>
                <mxCell id="54" style="edgeStyle=none;html=1;entryX=0.25;entryY=0;entryDx=0;entryDy=0;strokeColor=#33FF99;strokeWidth=3;fontSize=16;fontColor=#FFFFFF;exitX=0.16;exitY=1.025;exitDx=0;exitDy=0;exitPerimeter=0;" edge="1" parent="7" source="10" target="48">
                    <mxGeometry relative="1" as="geometry"/>
                </mxCell>
                <mxCell id="59" style="edgeStyle=none;html=1;entryX=0.25;entryY=0;entryDx=0;entryDy=0;strokeColor=#33FF99;strokeWidth=3;fontSize=16;fontColor=#FFFFFF;exitX=0.582;exitY=1.025;exitDx=0;exitDy=0;exitPerimeter=0;" edge="1" parent="7" source="10" target="56">
                    <mxGeometry relative="1" as="geometry">
                        <mxPoint x="330" y="340" as="sourcePoint"/>
                    </mxGeometry>
                </mxCell>
                <mxCell id="10" value="Message Queue - Collection&amp;lt;QueuedMessage&amp;gt;" style="rounded=0;whiteSpace=wrap;html=1;fontSize=16;" vertex="1" parent="7">
                    <mxGeometry x="50" y="270" width="470" height="60" as="geometry"/>
                </mxCell>
                <mxCell id="52" style="edgeStyle=none;html=1;entryX=0.75;entryY=1;entryDx=0;entryDy=0;strokeColor=#FF3333;strokeWidth=3;fontSize=16;fontColor=#FFFFFF;" edge="1" parent="7" source="12" target="48">
                    <mxGeometry relative="1" as="geometry">
                        <Array as="points">
                            <mxPoint x="215" y="510"/>
                        </Array>
                    </mxGeometry>
                </mxCell>
                <mxCell id="57" style="edgeStyle=none;html=1;entryX=0.75;entryY=1;entryDx=0;entryDy=0;strokeColor=#FF3333;strokeWidth=3;fontSize=16;fontColor=#FFFFFF;" edge="1" parent="7" source="12" target="56">
                    <mxGeometry relative="1" as="geometry"/>
                </mxCell>
                <mxCell id="12" value="Pull&lt;br&gt;Socket" style="ellipse;whiteSpace=wrap;html=1;aspect=fixed;fontSize=16;" vertex="1" parent="7">
                    <mxGeometry x="450" y="530" width="80" height="80" as="geometry"/>
                </mxCell>
                <mxCell id="14" style="edgeStyle=none;html=1;strokeWidth=3;fontSize=16;strokeColor=#FF66FF;" edge="1" parent="7" source="13">
                    <mxGeometry relative="1" as="geometry">
                        <mxPoint x="170" y="270" as="targetPoint"/>
                        <Array as="points"/>
                    </mxGeometry>
                </mxCell>
                <mxCell id="13" value="EmbusMessage&lt;br&gt;(string Topic)" style="rounded=0;whiteSpace=wrap;html=1;fontSize=16;" vertex="1" parent="7">
                    <mxGeometry x="80" y="140" width="180" height="60" as="geometry"/>
                </mxCell>
                <mxCell id="53" style="edgeStyle=none;html=1;entryX=0.354;entryY=1.067;entryDx=0;entryDy=0;entryPerimeter=0;strokeColor=#FF3333;strokeWidth=3;fontSize=16;fontColor=#FFFFFF;exitX=0.75;exitY=0;exitDx=0;exitDy=0;" edge="1" parent="7" source="48" target="10">
                    <mxGeometry relative="1" as="geometry"/>
                </mxCell>
                <mxCell id="55" style="edgeStyle=none;html=1;entryX=0;entryY=1;entryDx=0;entryDy=0;strokeColor=#33FF99;strokeWidth=3;fontSize=16;fontColor=#FFFFFF;exitX=0.25;exitY=1;exitDx=0;exitDy=0;" edge="1" parent="7" source="48" target="12">
                    <mxGeometry relative="1" as="geometry">
                        <Array as="points">
                            <mxPoint x="125" y="530"/>
                        </Array>
                    </mxGeometry>
                </mxCell>
                <mxCell id="48" value="Debus(string Topic)" style="rounded=0;whiteSpace=wrap;html=1;fontSize=16;fontColor=#FFFFFF;" vertex="1" parent="7">
                    <mxGeometry x="80" y="400" width="180" height="60" as="geometry"/>
                </mxCell>
                <mxCell id="51" style="edgeStyle=none;html=1;entryX=0.75;entryY=0;entryDx=0;entryDy=0;strokeColor=#FF66FF;strokeWidth=3;fontSize=16;fontColor=#FFFFFF;" edge="1" parent="7" source="49" target="10">
                    <mxGeometry relative="1" as="geometry"/>
                </mxCell>
                <mxCell id="49" value="EmbusMessage&lt;br&gt;(string Topic, guid Id, DateTime TimeStamp, int TimeLockInSeconds)" style="rounded=0;whiteSpace=wrap;html=1;fontSize=16;" vertex="1" parent="7">
                    <mxGeometry x="280" y="125" width="240" height="90" as="geometry"/>
                </mxCell>
                <mxCell id="58" style="edgeStyle=none;html=1;strokeColor=#FF3333;strokeWidth=3;fontSize=16;fontColor=#FFFFFF;exitX=0.75;exitY=0;exitDx=0;exitDy=0;entryX=0.835;entryY=1.025;entryDx=0;entryDy=0;entryPerimeter=0;" edge="1" parent="7" source="56" target="10">
                    <mxGeometry relative="1" as="geometry">
                        <mxPoint x="440" y="340" as="targetPoint"/>
                    </mxGeometry>
                </mxCell>
                <mxCell id="60" style="edgeStyle=none;html=1;entryX=0;entryY=0;entryDx=0;entryDy=0;strokeColor=#33FF99;strokeWidth=3;fontSize=16;fontColor=#FFFFFF;exitX=0.418;exitY=1.025;exitDx=0;exitDy=0;exitPerimeter=0;" edge="1" parent="7" source="56" target="12">
                    <mxGeometry relative="1" as="geometry"/>
                </mxCell>
                <mxCell id="56" value="Debus(string Topic, guid Id)" style="rounded=0;whiteSpace=wrap;html=1;fontSize=16;fontColor=#FFFFFF;" vertex="1" parent="7">
                    <mxGeometry x="290" y="400" width="230" height="60" as="geometry"/>
                </mxCell>
                <mxCell id="16" value="" style="swimlane;startSize=0;fontSize=11;" vertex="1" parent="1">
                    <mxGeometry x="-600" y="190" width="390" height="530" as="geometry"/>
                </mxCell>
                <mxCell id="20" value="PushMessage(string Topic, message Message)" style="rounded=0;whiteSpace=wrap;html=1;fontSize=15;" vertex="1" parent="16">
                    <mxGeometry y="30" width="390" height="50" as="geometry"/>
                </mxCell>
                <mxCell id="21" value="PushMessage(string Topic, message Message, guid Id)" style="rounded=0;whiteSpace=wrap;html=1;fontSize=15;" vertex="1" parent="16">
                    <mxGeometry y="110" width="390" height="50" as="geometry"/>
                </mxCell>
                <mxCell id="22" value="PushMessage(string Topic, message Message, guid Id, DateTime TimeStamp, int TimeLockInSeconds)" style="rounded=0;whiteSpace=wrap;html=1;fontSize=15;" vertex="1" parent="16">
                    <mxGeometry y="190" width="390" height="50" as="geometry"/>
                </mxCell>
                <mxCell id="23" value="PushMessageAsync(string Topic, message Message)" style="rounded=0;whiteSpace=wrap;html=1;fontSize=15;" vertex="1" parent="16">
                    <mxGeometry y="270" width="390" height="50" as="geometry"/>
                </mxCell>
                <mxCell id="24" value="PushMessageAsync&lt;br&gt;(string Topic, message Message, guid Id)" style="rounded=0;whiteSpace=wrap;html=1;fontSize=15;" vertex="1" parent="16">
                    <mxGeometry y="350" width="390" height="50" as="geometry"/>
                </mxCell>
                <mxCell id="25" value="PushMessageAsync&lt;br&gt;(string Topic, message Message, guid Id, DateTime TimeStamp, int TimeLockInSeconds)" style="rounded=0;whiteSpace=wrap;html=1;fontSize=15;" vertex="1" parent="16">
                    <mxGeometry y="430" width="390" height="70" as="geometry"/>
                </mxCell>
                <mxCell id="3" value="" style="rounded=0;whiteSpace=wrap;html=1;" vertex="1" parent="1">
                    <mxGeometry x="-60" y="380" width="210" height="130" as="geometry"/>
                </mxCell>
                <mxCell id="5" value="Topic (string)&lt;br&gt;Id&amp;nbsp; &amp;nbsp; &amp;nbsp; &amp;nbsp; (guid) - optional&lt;br&gt;TimeStamp (DateTime) - optional&lt;br&gt;TimeLockInSeconds (int) - optional&lt;br&gt;Message(Message)&amp;nbsp; &amp;nbsp;" style="text;html=1;strokeColor=none;fillColor=none;align=center;verticalAlign=middle;whiteSpace=wrap;rounded=0;" vertex="1" parent="1">
                    <mxGeometry x="-50" y="410" width="190" height="90" as="geometry"/>
                </mxCell>
                <mxCell id="4" value="MessageWarraper" style="text;html=1;strokeColor=none;fillColor=none;align=center;verticalAlign=middle;whiteSpace=wrap;rounded=0;fontSize=16;" vertex="1" parent="1">
                    <mxGeometry x="-39.37" y="380" width="168.75" height="30" as="geometry"/>
                </mxCell>
                <mxCell id="17" value="MessageBus" style="text;html=1;strokeColor=none;fillColor=none;align=center;verticalAlign=middle;whiteSpace=wrap;rounded=0;fontSize=30;" vertex="1" parent="1">
                    <mxGeometry x="395" y="250" width="270" height="40" as="geometry"/>
                </mxCell>
                <mxCell id="18" value="MessageBusService" style="text;html=1;strokeColor=none;fillColor=none;align=center;verticalAlign=middle;whiteSpace=wrap;rounded=0;fontSize=30;" vertex="1" parent="1">
                    <mxGeometry x="-565" y="150" width="295" height="40" as="geometry"/>
                </mxCell>
                <mxCell id="27" style="edgeStyle=none;html=1;entryX=0;entryY=0.5;entryDx=0;entryDy=0;strokeWidth=3;fontSize=15;dashed=1;fillColor=#1ba1e2;strokeColor=#FF66FF;" edge="1" parent="1" source="20" target="3">
                    <mxGeometry relative="1" as="geometry">
                        <Array as="points">
                            <mxPoint x="-160" y="245"/>
                            <mxPoint x="-160" y="445"/>
                        </Array>
                    </mxGeometry>
                </mxCell>
                <mxCell id="28" style="edgeStyle=none;html=1;entryX=0;entryY=0.5;entryDx=0;entryDy=0;dashed=1;strokeWidth=3;fontSize=15;fillColor=#1ba1e2;strokeColor=#FF66FF;" edge="1" parent="1" source="21" target="3">
                    <mxGeometry relative="1" as="geometry">
                        <Array as="points">
                            <mxPoint x="-160" y="325"/>
                            <mxPoint x="-160" y="445"/>
                        </Array>
                    </mxGeometry>
                </mxCell>
                <mxCell id="29" style="edgeStyle=none;html=1;entryX=0;entryY=0.5;entryDx=0;entryDy=0;dashed=1;strokeWidth=3;fontSize=15;fillColor=#1ba1e2;strokeColor=#FF66FF;" edge="1" parent="1" source="22" target="3">
                    <mxGeometry relative="1" as="geometry">
                        <Array as="points">
                            <mxPoint x="-160" y="405"/>
                            <mxPoint x="-160" y="445"/>
                        </Array>
                    </mxGeometry>
                </mxCell>
                <mxCell id="30" style="edgeStyle=none;html=1;entryX=0;entryY=0.5;entryDx=0;entryDy=0;dashed=1;strokeWidth=3;fontSize=15;fillColor=#1ba1e2;strokeColor=#FF66FF;" edge="1" parent="1" source="23" target="3">
                    <mxGeometry relative="1" as="geometry">
                        <Array as="points">
                            <mxPoint x="-160" y="485"/>
                            <mxPoint x="-160" y="445"/>
                        </Array>
                    </mxGeometry>
                </mxCell>
                <mxCell id="31" style="edgeStyle=none;html=1;entryX=0;entryY=0.5;entryDx=0;entryDy=0;dashed=1;strokeWidth=3;fontSize=15;fillColor=#1ba1e2;strokeColor=#FF66FF;" edge="1" parent="1" source="24" target="3">
                    <mxGeometry relative="1" as="geometry">
                        <Array as="points">
                            <mxPoint x="-160" y="565"/>
                            <mxPoint x="-160" y="445"/>
                        </Array>
                    </mxGeometry>
                </mxCell>
                <mxCell id="32" style="edgeStyle=none;html=1;entryX=0;entryY=0.5;entryDx=0;entryDy=0;dashed=1;strokeWidth=3;fontSize=15;fillColor=#1ba1e2;strokeColor=#FF66FF;" edge="1" parent="1" source="25" target="3">
                    <mxGeometry relative="1" as="geometry">
                        <Array as="points">
                            <mxPoint x="-160" y="655"/>
                            <mxPoint x="-160" y="445"/>
                        </Array>
                    </mxGeometry>
                </mxCell>
                <mxCell id="33" style="edgeStyle=none;html=1;dashed=1;strokeWidth=3;fontSize=15;fillColor=#b0e3e6;strokeColor=#33FF99;entryX=1;entryY=0.75;entryDx=0;entryDy=0;" edge="1" parent="1">
                    <mxGeometry relative="1" as="geometry">
                        <mxPoint x="304.4972914386576" y="391.81577284495563" as="sourcePoint"/>
                        <mxPoint x="-210" y="578.5" as="targetPoint"/>
                        <Array as="points">
                            <mxPoint x="280" y="421"/>
                            <mxPoint x="280" y="579"/>
                        </Array>
                    </mxGeometry>
                </mxCell>
                <mxCell id="34" style="edgeStyle=none;html=1;entryX=1;entryY=0.75;entryDx=0;entryDy=0;dashed=1;strokeColor=#33FF99;strokeWidth=3;fontSize=15;" edge="1" parent="1">
                    <mxGeometry relative="1" as="geometry">
                        <mxPoint x="304.4972914386576" y="389.81577284495563" as="sourcePoint"/>
                        <mxPoint x="-210" y="496.5" as="targetPoint"/>
                        <Array as="points">
                            <mxPoint x="280" y="419"/>
                            <mxPoint x="280" y="579"/>
                            <mxPoint x="-90" y="579"/>
                            <mxPoint x="-90" y="499"/>
                        </Array>
                    </mxGeometry>
                </mxCell>
                <mxCell id="35" value="Message&lt;br style=&quot;font-size: 11px;&quot;&gt;Received&lt;br style=&quot;font-size: 11px;&quot;&gt;Confirmation" style="edgeStyle=none;html=1;entryX=1;entryY=0.75;entryDx=0;entryDy=0;dashed=1;strokeColor=#33FF99;strokeWidth=3;fontSize=11;" edge="1" parent="1">
                    <mxGeometry relative="1" as="geometry">
                        <mxPoint x="304.4972914386576" y="389.81577284495563" as="sourcePoint"/>
                        <mxPoint x="-210" y="671.5" as="targetPoint"/>
                        <Array as="points">
                            <mxPoint x="280" y="419"/>
                            <mxPoint x="280" y="579"/>
                            <mxPoint x="-90" y="579"/>
                            <mxPoint x="-90" y="672"/>
                        </Array>
                    </mxGeometry>
                </mxCell>
                <mxCell id="36" value="" style="swimlane;startSize=0;fontSize=11;" vertex="1" parent="1">
                    <mxGeometry x="1170" y="300" width="390" height="350" as="geometry"/>
                </mxCell>
                <mxCell id="37" value="PullMessage(string Topic)" style="rounded=0;whiteSpace=wrap;html=1;fontSize=15;" vertex="1" parent="36">
                    <mxGeometry y="30" width="390" height="50" as="geometry"/>
                </mxCell>
                <mxCell id="38" value="PullMessage(string Topic, guid Id)" style="rounded=0;whiteSpace=wrap;html=1;fontSize=15;" vertex="1" parent="36">
                    <mxGeometry y="110" width="390" height="50" as="geometry"/>
                </mxCell>
                <mxCell id="40" value="PullMessageAsync(string Topic)" style="rounded=0;whiteSpace=wrap;html=1;fontSize=15;" vertex="1" parent="36">
                    <mxGeometry y="190" width="390" height="50" as="geometry"/>
                </mxCell>
                <mxCell id="41" value="PullMessageAsync(string Topic, guid Id)" style="rounded=0;whiteSpace=wrap;html=1;fontSize=15;" vertex="1" parent="36">
                    <mxGeometry y="270" width="390" height="50" as="geometry"/>
                </mxCell>
                <mxCell id="43" value="MessageBusService" style="text;html=1;strokeColor=none;fillColor=none;align=center;verticalAlign=middle;whiteSpace=wrap;rounded=0;fontSize=30;" vertex="1" parent="1">
                    <mxGeometry x="1205" y="260" width="295" height="40" as="geometry"/>
                </mxCell>
                <mxCell id="44" style="edgeStyle=none;html=1;entryX=1;entryY=0.5;entryDx=0;entryDy=0;dashed=1;strokeColor=#FF3333;strokeWidth=3;fontSize=40;fontColor=#7F00FF;exitX=0;exitY=0.25;exitDx=0;exitDy=0;" edge="1" parent="1" source="37" target="12">
                    <mxGeometry relative="1" as="geometry">
                        <Array as="points">
                            <mxPoint x="1040" y="343"/>
                            <mxPoint x="1040" y="860"/>
                        </Array>
                    </mxGeometry>
                </mxCell>
                <mxCell id="45" style="edgeStyle=none;html=1;entryX=1;entryY=0.5;entryDx=0;entryDy=0;dashed=1;strokeColor=#FF3333;strokeWidth=3;fontSize=40;fontColor=#7F00FF;exitX=0;exitY=0.25;exitDx=0;exitDy=0;" edge="1" parent="1" source="38" target="12">
                    <mxGeometry relative="1" as="geometry">
                        <Array as="points">
                            <mxPoint x="1040" y="423"/>
                            <mxPoint x="1040" y="860"/>
                        </Array>
                    </mxGeometry>
                </mxCell>
                <mxCell id="46" style="edgeStyle=none;html=1;entryX=1;entryY=0.5;entryDx=0;entryDy=0;dashed=1;strokeColor=#FF3333;strokeWidth=3;fontSize=40;fontColor=#7F00FF;exitX=0;exitY=0.25;exitDx=0;exitDy=0;" edge="1" parent="1" source="40" target="12">
                    <mxGeometry relative="1" as="geometry">
                        <Array as="points">
                            <mxPoint x="1040" y="503"/>
                            <mxPoint x="1040" y="860"/>
                        </Array>
                    </mxGeometry>
                </mxCell>
                <mxCell id="47" style="edgeStyle=none;html=1;dashed=1;strokeColor=#FF3333;strokeWidth=3;fontSize=40;fontColor=#7F00FF;entryX=1;entryY=0.5;entryDx=0;entryDy=0;exitX=0;exitY=0.25;exitDx=0;exitDy=0;" edge="1" parent="1" source="41" target="12">
                    <mxGeometry relative="1" as="geometry">
                        <mxPoint x="770" y="610" as="targetPoint"/>
                        <Array as="points">
                            <mxPoint x="1040" y="583"/>
                            <mxPoint x="1040" y="860"/>
                        </Array>
                    </mxGeometry>
                </mxCell>
                <mxCell id="62" style="edgeStyle=none;html=1;strokeColor=#33FF99;strokeWidth=3;fontSize=16;fontColor=#FFFFFF;dashed=1;" edge="1" parent="1" source="12" target="63">
                    <mxGeometry relative="1" as="geometry">
                        <mxPoint x="890" y="609.9999999999998" as="targetPoint"/>
                        <Array as="points">
                            <mxPoint x="790" y="790"/>
                            <mxPoint x="910" y="790"/>
                        </Array>
                    </mxGeometry>
                </mxCell>
                <mxCell id="67" style="edgeStyle=none;html=1;entryX=0;entryY=0.75;entryDx=0;entryDy=0;strokeColor=#33FF99;strokeWidth=3;fontSize=22;fontColor=#FFFFFF;exitX=1;exitY=0.5;exitDx=0;exitDy=0;dashed=1;" edge="1" parent="1" source="65" target="37">
                    <mxGeometry relative="1" as="geometry">
                        <Array as="points">
                            <mxPoint x="1000" y="465"/>
                            <mxPoint x="1000" y="370"/>
                        </Array>
                    </mxGeometry>
                </mxCell>
                <mxCell id="63" value="" style="rounded=0;whiteSpace=wrap;html=1;fontSize=16;fontColor=#FFFFFF;" vertex="1" parent="1">
                    <mxGeometry x="850" y="400" width="120" height="130" as="geometry"/>
                </mxCell>
                <mxCell id="64" value="Message" style="text;html=1;strokeColor=none;fillColor=none;align=center;verticalAlign=middle;whiteSpace=wrap;rounded=0;fontSize=22;fontColor=#FFFFFF;" vertex="1" parent="1">
                    <mxGeometry x="865" y="410" width="90" height="30" as="geometry"/>
                </mxCell>
                <mxCell id="68" style="edgeStyle=none;html=1;entryX=0;entryY=0.75;entryDx=0;entryDy=0;strokeColor=#33FF99;strokeWidth=3;fontSize=22;fontColor=#FFFFFF;exitX=1;exitY=0.5;exitDx=0;exitDy=0;dashed=1;" edge="1" parent="1" source="65" target="38">
                    <mxGeometry relative="1" as="geometry">
                        <mxPoint x="980" y="480" as="sourcePoint"/>
                        <Array as="points">
                            <mxPoint x="1000" y="465"/>
                            <mxPoint x="1000" y="450"/>
                        </Array>
                    </mxGeometry>
                </mxCell>
                <mxCell id="70" style="edgeStyle=none;html=1;entryX=0;entryY=0.75;entryDx=0;entryDy=0;strokeColor=#33FF99;strokeWidth=3;fontSize=22;fontColor=#FFFFFF;exitX=1;exitY=0.5;exitDx=0;exitDy=0;dashed=1;" edge="1" parent="1" source="65" target="41">
                    <mxGeometry relative="1" as="geometry">
                        <Array as="points">
                            <mxPoint x="1000" y="465"/>
                            <mxPoint x="1000" y="608"/>
                        </Array>
                    </mxGeometry>
                </mxCell>
                <mxCell id="65" value="Bool AnyValue" style="text;html=1;strokeColor=none;fillColor=none;align=center;verticalAlign=middle;whiteSpace=wrap;rounded=0;fontSize=16;fontColor=#FFFFFF;" vertex="1" parent="1">
                    <mxGeometry x="850" y="450" width="120" height="30" as="geometry"/>
                </mxCell>
                <mxCell id="69" style="edgeStyle=none;html=1;entryX=0;entryY=0.75;entryDx=0;entryDy=0;strokeColor=#33FF99;strokeWidth=3;fontSize=22;fontColor=#FFFFFF;exitX=1;exitY=0.5;exitDx=0;exitDy=0;dashed=1;" edge="1" parent="1" source="65" target="40">
                    <mxGeometry relative="1" as="geometry">
                        <Array as="points">
                            <mxPoint x="1000" y="465"/>
                            <mxPoint x="1000" y="528"/>
                        </Array>
                    </mxGeometry>
                </mxCell>
                <mxCell id="66" value="string Payload" style="text;html=1;strokeColor=none;fillColor=none;align=center;verticalAlign=middle;whiteSpace=wrap;rounded=0;fontSize=16;fontColor=#FFFFFF;" vertex="1" parent="1">
                    <mxGeometry x="850" y="490" width="120" height="30" as="geometry"/>
                </mxCell>
                <mxCell id="76" style="edgeStyle=none;html=1;entryX=0;entryY=0.5;entryDx=0;entryDy=0;dashed=1;strokeColor=#FF66FF;strokeWidth=3;fontSize=22;fontColor=#FFFFFF;" edge="1" parent="1" source="71" target="21">
                    <mxGeometry relative="1" as="geometry">
                        <Array as="points">
                            <mxPoint x="-680" y="435"/>
                            <mxPoint x="-680" y="325"/>
                        </Array>
                    </mxGeometry>
                </mxCell>
                <mxCell id="77" style="edgeStyle=none;html=1;entryX=0;entryY=0.5;entryDx=0;entryDy=0;dashed=1;strokeColor=#FF66FF;strokeWidth=3;fontSize=22;fontColor=#FFFFFF;" edge="1" parent="1" source="71" target="22">
                    <mxGeometry relative="1" as="geometry">
                        <Array as="points">
                            <mxPoint x="-680" y="435"/>
                            <mxPoint x="-680" y="405"/>
                        </Array>
                    </mxGeometry>
                </mxCell>
                <mxCell id="78" style="edgeStyle=none;html=1;entryX=0;entryY=0.5;entryDx=0;entryDy=0;dashed=1;strokeColor=#FF66FF;strokeWidth=3;fontSize=22;fontColor=#FFFFFF;" edge="1" parent="1" source="71" target="23">
                    <mxGeometry relative="1" as="geometry">
                        <Array as="points">
                            <mxPoint x="-680" y="435"/>
                            <mxPoint x="-680" y="485"/>
                        </Array>
                    </mxGeometry>
                </mxCell>
                <mxCell id="79" style="edgeStyle=none;html=1;entryX=0;entryY=0.5;entryDx=0;entryDy=0;dashed=1;strokeColor=#FF66FF;strokeWidth=3;fontSize=22;fontColor=#FFFFFF;" edge="1" parent="1" source="71" target="24">
                    <mxGeometry relative="1" as="geometry">
                        <Array as="points">
                            <mxPoint x="-680" y="435"/>
                            <mxPoint x="-680" y="565"/>
                        </Array>
                    </mxGeometry>
                </mxCell>
                <mxCell id="80" style="edgeStyle=none;html=1;entryX=0;entryY=0.5;entryDx=0;entryDy=0;dashed=1;strokeColor=#FF66FF;strokeWidth=3;fontSize=22;fontColor=#FFFFFF;" edge="1" parent="1" source="71" target="25">
                    <mxGeometry relative="1" as="geometry">
                        <Array as="points">
                            <mxPoint x="-680" y="435"/>
                            <mxPoint x="-680" y="655"/>
                        </Array>
                    </mxGeometry>
                </mxCell>
                <mxCell id="71" value="" style="rounded=0;whiteSpace=wrap;html=1;fontSize=16;fontColor=#FFFFFF;" vertex="1" parent="1">
                    <mxGeometry x="-840" y="370" width="120" height="130" as="geometry"/>
                </mxCell>
                <mxCell id="72" value="Message" style="text;html=1;strokeColor=none;fillColor=none;align=center;verticalAlign=middle;whiteSpace=wrap;rounded=0;fontSize=22;fontColor=#FFFFFF;" vertex="1" parent="1">
                    <mxGeometry x="-825" y="380" width="90" height="30" as="geometry"/>
                </mxCell>
                <mxCell id="75" style="edgeStyle=none;html=1;entryX=0;entryY=0.5;entryDx=0;entryDy=0;dashed=1;strokeColor=#FF66FF;strokeWidth=3;fontSize=22;fontColor=#FFFFFF;exitX=1;exitY=0.5;exitDx=0;exitDy=0;" edge="1" parent="1" source="73" target="20">
                    <mxGeometry relative="1" as="geometry">
                        <Array as="points">
                            <mxPoint x="-680" y="435"/>
                            <mxPoint x="-680" y="245"/>
                        </Array>
                    </mxGeometry>
                </mxCell>
                <mxCell id="73" value="Bool AnyValue" style="text;html=1;strokeColor=none;fillColor=none;align=center;verticalAlign=middle;whiteSpace=wrap;rounded=0;fontSize=16;fontColor=#FFFFFF;" vertex="1" parent="1">
                    <mxGeometry x="-840" y="420" width="120" height="30" as="geometry"/>
                </mxCell>
                <mxCell id="74" value="string Payload" style="text;html=1;strokeColor=none;fillColor=none;align=center;verticalAlign=middle;whiteSpace=wrap;rounded=0;fontSize=16;fontColor=#FFFFFF;" vertex="1" parent="1">
                    <mxGeometry x="-840" y="460" width="120" height="30" as="geometry"/>
                </mxCell>
            </root>
        </mxGraphModel>
    </diagram>
</mxfile>